<svg width="105" height="39" viewBox="0 0 105 39" fill="none" xmlns="http://www.w3.org/2000/svg">
<g clip-path="url(#clip0_3_16)">
<path d="M6.31886 16.0074V31.7394C6.31886 32.6731 6.16686 33.5634 5.86286 34.4103C5.55886 35.2571 5.12457 36.028 4.56 36.7229C4.01714 37.4394 3.36571 38.0257 2.60571 38.4817L0.423429 36.7554C1.11829 35.9737 1.61771 35.192 1.92171 34.4103C2.22571 33.6286 2.37771 32.7383 2.37771 31.7394V16.0074H6.31886ZM5.21143 8.972C5.97143 8.972 6.35143 9.36286 6.35143 10.1446V11.9686C6.35143 12.7503 5.97143 13.1411 5.21143 13.1411H3.45257C2.67086 13.1411 2.28 12.7503 2.28 11.9686V10.1446C2.28 9.36286 2.67086 8.972 3.45257 8.972H5.21143ZM14.7101 16.0074V26.8211C14.6884 27.6246 14.8404 28.2 15.1661 28.5474C15.5135 28.8949 16.0672 29.0686 16.8272 29.0686C17.5872 29.0686 18.3472 28.9057 19.1072 28.58C19.8672 28.2543 20.7901 27.7657 21.8758 27.1143L22.2666 29.4594C21.0506 30.4366 19.8781 31.1749 18.7489 31.6743C17.6198 32.1737 16.4472 32.4234 15.2312 32.4234C12.2564 32.4234 10.7689 30.9577 10.7689 28.0263V16.0074H14.7101ZM25.4261 16.0074V32H22.2992L21.8758 28.9057L21.4849 28.4497V16.0074H25.4261ZM40.3766 15.6166C43.3515 15.6166 44.8389 17.0823 44.8389 20.0137V32H40.8978V21.2189C40.8978 20.3503 40.7458 19.7531 40.4418 19.4274C40.1378 19.1017 39.6275 18.9389 38.9109 18.9389C38.1075 18.9389 37.2823 19.1234 36.4355 19.4926C35.5886 19.84 34.568 20.3503 33.3738 21.0234L33.2109 18.6457C34.3835 17.6686 35.5778 16.9194 36.7938 16.3983C38.0098 15.8771 39.204 15.6166 40.3766 15.6166ZM33.0806 16.0074L33.4715 19.1343L33.7972 19.5903V32H29.856V16.0074H33.0806ZM59.0978 15.6166C61.0738 15.6166 62.4961 16.344 63.3647 17.7989C64.2332 19.2537 64.6675 21.36 64.6675 24.1177C64.6675 26.224 64.4395 27.8851 63.9835 29.1011C63.5492 30.2954 62.8869 31.1531 61.9967 31.6743C61.1064 32.1737 59.9772 32.4234 58.6092 32.4234C57.5235 32.4234 56.4595 32.2714 55.4172 31.9674C54.3967 31.6417 53.4521 31.1423 52.5835 30.4691L52.8441 28.5149C53.6909 28.7537 54.4509 28.96 55.1241 29.1337C55.7972 29.3074 56.5355 29.3943 57.3389 29.3943C58.1424 29.3943 58.7721 29.264 59.2281 29.0034C59.7058 28.7211 60.0532 28.2 60.2704 27.44C60.4875 26.68 60.5961 25.5834 60.5961 24.1503C60.5961 22.7389 60.4984 21.6423 60.3029 20.8606C60.1075 20.0789 59.7818 19.536 59.3258 19.232C58.8915 18.9063 58.3161 18.7434 57.5995 18.7434C56.8178 18.7434 56.0795 18.9171 55.3847 19.2646C54.6898 19.5903 53.8864 20.0789 52.9744 20.7303L52.5184 18.6457C53.0178 18.0594 53.6149 17.5383 54.3098 17.0823C55.0264 16.6263 55.7972 16.268 56.6224 16.0074C57.4475 15.7469 58.2727 15.6166 59.0978 15.6166ZM52.3555 16.0074L52.7464 19.1017L53.1047 19.5577V29.8829L52.9418 30.2737C53.0069 30.9034 53.0504 31.5331 53.0721 32.1629C53.0938 32.8143 53.1047 33.4766 53.1047 34.1497V38.3514H49.1635V16.0074H52.3555ZM72.4129 9.2L72.3803 27.1794C72.3803 27.7874 72.554 28.2543 72.9015 28.58C73.2489 28.884 73.7483 29.036 74.3998 29.036H75.8003L76.2563 31.8046C76.0175 31.9131 75.6809 32.0109 75.2466 32.0977C74.834 32.1846 74.3998 32.2389 73.9438 32.2606C73.5095 32.304 73.1295 32.3257 72.8038 32.3257C71.4792 32.3257 70.426 31.9674 69.6443 31.2509C68.8626 30.5343 68.4718 29.5029 68.4718 28.1566V9.2H72.4129ZM82.752 16.0074V32H78.8435V16.0074H82.752ZM81.6772 9.06971C82.4589 9.06971 82.8497 9.46057 82.8497 10.2423V12.0663C82.8497 12.848 82.4589 13.2389 81.6772 13.2389H79.9183C79.1366 13.2389 78.7458 12.848 78.7458 12.0663V10.2423C78.7458 9.46057 79.1366 9.06971 79.9183 9.06971H81.6772ZM92.7082 15.6166C93.7939 15.6166 94.8579 15.7686 95.9002 16.0726C96.9425 16.3549 97.8871 16.8326 98.7339 17.5057L98.4733 19.4926C97.6265 19.2537 96.8665 19.0474 96.1933 18.8737C95.5202 18.7 94.7711 18.6131 93.9459 18.6131C93.1642 18.6131 92.5345 18.7543 92.0568 19.0366C91.6008 19.2971 91.2533 19.8074 91.0145 20.5674C90.7973 21.3274 90.6888 22.4349 90.6888 23.8897C90.6888 25.2794 90.7973 26.3543 91.0145 27.1143C91.2316 27.8526 91.5682 28.3737 92.0242 28.6777C92.4802 28.96 93.0773 29.1011 93.8156 29.1011C94.4019 29.1011 94.9231 29.036 95.3791 28.9057C95.8351 28.7537 96.3019 28.5366 96.7796 28.2543C97.2573 27.9503 97.8111 27.5703 98.4408 27.1143L98.7665 29.3291C98.0282 30.176 97.1162 30.9034 96.0305 31.5114C94.9665 32.0977 93.7288 32.3909 92.3173 32.3909C90.2762 32.3909 88.8213 31.6743 87.9528 30.2411C87.0842 28.7863 86.6499 26.68 86.6499 23.9223C86.6499 21.816 86.8671 20.1657 87.3013 18.9714C87.7573 17.7554 88.4305 16.8977 89.3208 16.3983C90.2328 15.8771 91.3619 15.6166 92.7082 15.6166ZM101.958 9.2V32H98.8642L98.4408 29.1337L98.0173 28.808V18.1246L98.2128 17.6686C98.1259 17.0389 98.0716 16.4091 98.0499 15.7794C98.0282 15.128 98.0173 14.4657 98.0173 13.7926V9.2H101.958Z" fill="white"/>
</g>
<defs>
<clipPath id="clip0_3_16">
<rect width="105" height="39" fill="white"/>
</clipPath>
</defs>
</svg>
